<svg id="Group_691" data-name="Group 691" xmlns="http://www.w3.org/2000/svg" xmlns:xlink="http://www.w3.org/1999/xlink" width="50" height="50" viewBox="0 0 50 50">
  <defs>
    <linearGradient id="linear-gradient" x1="0.5" x2="0.5" y2="1" gradientUnits="objectBoundingBox">
      <stop offset="0" stop-color="#f0b"/>
      <stop offset="1" stop-color="#fe5858"/>
    </linearGradient>
    <clipPath id="clip-path">
      <rect id="Rectangle_51" data-name="Rectangle 51" width="50" height="50" fill="url(#linear-gradient)"/>
    </clipPath>
  </defs>
  <g id="Group_690" data-name="Group 690" clip-path="url(#clip-path)">
    <path id="Path_2393" data-name="Path 2393" d="M3.539,0H46.43c.027.02.052.051.083.059A4.177,4.177,0,0,1,49.97,4.578q0,20.428,0,40.856a6.027,6.027,0,0,1-.043.934,4.148,4.148,0,0,1-4.284,3.6q-20.662,0-41.324,0c-.1,0-.209,0-.312-.005A4.1,4.1,0,0,1,.292,47.31c-.119-.284-.2-.585-.292-.879V3.54A4.305,4.305,0,0,1,1.848.727,13.127,13.127,0,0,1,3.539,0M1.666,8.326v.568q0,18.32,0,36.641A2.529,2.529,0,0,0,4.447,48.3H45.512A2.533,2.533,0,0,0,48.3,45.492q0-18.294,0-36.588V8.326ZM48.3,6.607c0-.234-.01-.438,0-.642.207-3.618-.685-4.347-4.272-4.327C30.9,1.71,17.771,1.667,4.64,1.667c-.208,0-.417-.006-.624.006a2.318,2.318,0,0,0-2.191,1.7,26.254,26.254,0,0,0-.211,3.229Z" transform="translate(0 -0.001)" fill="url(#linear-gradient)"/>
    <path id="Path_2394" data-name="Path 2394" d="M31.84,125.321c0-2.793.022-5.586-.011-8.378a3.543,3.543,0,0,1,1.311-2.871,9.838,9.838,0,0,1,4.7-2.066,18.442,18.442,0,0,1,10.239.669,10.278,10.278,0,0,1,2.49,1.465,3.279,3.279,0,0,1,1.263,2.778c-.021,5.551-.037,11.1.008,16.652A3.9,3.9,0,0,1,50.061,137a10.672,10.672,0,0,1-4.314,1.712,18.941,18.941,0,0,1-10.145-.667,6.9,6.9,0,0,1-2.9-1.86,3.3,3.3,0,0,1-.863-2.275c.013-2.862.005-5.724,0-8.586m10.639-5.367c.661-.089,1.956-.207,3.227-.452a7.836,7.836,0,0,0,3.759-1.662,1.415,1.415,0,0,0,0-2.451,7.3,7.3,0,0,0-2.011-1.153,16.675,16.675,0,0,0-10.516-.258,6.248,6.248,0,0,0-2.969,1.63,1.258,1.258,0,0,0,0,1.972,6.205,6.205,0,0,0,1.558,1.1,15.967,15.967,0,0,0,6.952,1.279m-8.973,11.318a17.7,17.7,0,0,1-.014,2.039A2.44,2.44,0,0,0,35,135.9a8.986,8.986,0,0,0,1.026.5,16.67,16.67,0,0,0,8.9.761,10.227,10.227,0,0,0,4.118-1.493,2.175,2.175,0,0,0,1.128-2.121c-.059-.653-.009-1.317-.013-1.975a1.658,1.658,0,0,0-.028-.26,18.193,18.193,0,0,1-16.627-.033m0-5.818a17.762,17.762,0,0,1-.014,2.047,2.42,2.42,0,0,0,1.483,2.549,8.275,8.275,0,0,0,1.023.5,16.816,16.816,0,0,0,9.51.658,8.284,8.284,0,0,0,3.709-1.532,2.342,2.342,0,0,0,.892-1.267,21.688,21.688,0,0,0,.042-2.955,18.224,18.224,0,0,1-16.644,0m0-5.971a21.324,21.324,0,0,1-.014,2.234,2.369,2.369,0,0,0,1.387,2.45,7.8,7.8,0,0,0,1.113.555,16.805,16.805,0,0,0,9.51.662,8.3,8.3,0,0,0,3.71-1.529,2.342,2.342,0,0,0,.9-1.264,23.433,23.433,0,0,0,.042-3.1,14.839,14.839,0,0,1-8.293,2.1,14.913,14.913,0,0,1-8.35-2.11" transform="translate(-28.509 -99.947)" fill="url(#linear-gradient)"/>
    <path id="Path_2395" data-name="Path 2395" d="M255.8,151.69a8.327,8.327,0,1,1-8.308,8.268,8.335,8.335,0,0,1,8.308-8.268m3.349,8.334a3.33,3.33,0,1,0-3.35,3.324,3.335,3.335,0,0,0,3.35-3.324m-4.181-6.619a6.685,6.685,0,0,0-4.453,10.65l1.206-1.17a5.028,5.028,0,0,1,3.248-7.805Zm5.794,7.465a5.033,5.033,0,0,1-7.766,3.293l-1.244,1.144a6.689,6.689,0,0,0,10.669-4.437Zm-4.083-7.411v1.623a5.112,5.112,0,0,1,4.086,4.082h1.59a6.443,6.443,0,0,0-5.675-5.7" transform="translate(-221.672 -135.866)" fill="url(#linear-gradient)"/>
    <rect id="Rectangle_32" data-name="Rectangle 32" width="16.59" height="1.604" transform="translate(25.009 43.334)" fill="url(#linear-gradient)"/>
    <rect id="Rectangle_33" data-name="Rectangle 33" width="16.59" height="1.602" transform="translate(25.028 40.012)" fill="url(#linear-gradient)"/>
    <rect id="Rectangle_34" data-name="Rectangle 34" width="11.612" height="1.6" transform="translate(30.007 36.682)" fill="url(#linear-gradient)"/>
    <rect id="Rectangle_35" data-name="Rectangle 35" width="3.273" height="1.599" transform="translate(43.332 15.862)" fill="url(#linear-gradient)"/>
    <rect id="Rectangle_36" data-name="Rectangle 36" width="3.267" height="1.612" transform="translate(25.022 14.19)" fill="url(#linear-gradient)"/>
    <rect id="Rectangle_37" data-name="Rectangle 37" width="3.284" height="1.592" transform="translate(42.503 29.19)" fill="url(#linear-gradient)"/>
    <rect id="Rectangle_38" data-name="Rectangle 38" width="3.285" height="1.598" transform="translate(42.496 32.51)" fill="url(#linear-gradient)"/>
    <rect id="Rectangle_39" data-name="Rectangle 39" width="3.283" height="1.591" transform="translate(25.023 36.677)" fill="url(#linear-gradient)"/>
    <rect id="Rectangle_40" data-name="Rectangle 40" width="3.266" height="1.606" transform="translate(43.333 19.18)" fill="url(#linear-gradient)"/>
    <rect id="Rectangle_41" data-name="Rectangle 41" width="1.583" height="1.62" transform="translate(11.703 3.342)" fill="url(#linear-gradient)"/>
    <rect id="Rectangle_42" data-name="Rectangle 42" width="1.611" height="1.602" transform="translate(8.36 3.359)" fill="url(#linear-gradient)"/>
    <rect id="Rectangle_43" data-name="Rectangle 43" width="1.616" height="1.607" transform="translate(5.017 3.365)" fill="url(#linear-gradient)"/>
    <rect id="Rectangle_44" data-name="Rectangle 44" width="9.928" height="1.603" transform="translate(8.352 15.85)" fill="url(#linear-gradient)"/>
    <rect id="Rectangle_45" data-name="Rectangle 45" width="1.595" height="1.62" transform="translate(5.87 33.333)" fill="url(#linear-gradient)"/>
    <rect id="Rectangle_46" data-name="Rectangle 46" width="1.592" height="1.62" transform="translate(9.193 34.155)" fill="url(#linear-gradient)"/>
    <rect id="Rectangle_47" data-name="Rectangle 47" width="1.6" height="1.601" transform="translate(5.858 27.525)" fill="url(#linear-gradient)"/>
    <rect id="Rectangle_48" data-name="Rectangle 48" width="1.62" height="1.595" transform="translate(9.181 28.347)" fill="url(#linear-gradient)"/>
    <rect id="Rectangle_49" data-name="Rectangle 49" width="1.59" height="1.617" transform="translate(5.872 21.692)" fill="url(#linear-gradient)"/>
    <rect id="Rectangle_50" data-name="Rectangle 50" width="1.617" height="1.59" transform="translate(9.172 22.529)" fill="url(#linear-gradient)"/>
  </g>
</svg>
